<svg width="19.819824" height="19.815918" viewBox="0 0 19.8198 19.8159" fill="none" xmlns="http://www.w3.org/2000/svg" xmlns:xlink="http://www.w3.org/1999/xlink">
	<desc>
			Created with Pixso.
	</desc>
	<defs/>
	<path id="Vector" d="M9.91 19.81C7.28 19.81 4.76 18.77 2.9 16.91C1.04 15.05 0 12.53 0 9.9C0 7.28 1.04 4.76 2.9 2.9C4.76 1.04 7.28 0 9.91 0C12.53 0 15.05 1.04 16.91 2.9C18.77 4.76 19.81 7.28 19.81 9.9C19.81 12.53 18.77 15.05 16.91 16.91C15.05 18.76 12.53 19.81 9.91 19.81ZM9.91 1.28C7.62 1.28 5.42 2.19 3.81 3.8C2.19 5.42 1.28 7.62 1.28 9.9C1.28 12.19 2.19 14.38 3.81 16C5.42 17.62 7.62 18.53 9.91 18.53C12.19 18.53 14.39 17.62 16 16C17.62 14.38 18.53 12.19 18.53 9.9C18.53 7.62 17.62 5.42 16 3.81C14.38 2.19 12.19 1.28 9.91 1.28Z" fill="#8F9B92" fill-opacity="1.000000" fill-rule="nonzero"/>
	<path id="Vector" d="M9.9 19.81C7.25 19.81 5.8 14.71 5.8 9.9C5.8 5.1 7.24 0 9.9 0C12.57 0 14.01 5.1 14.01 9.9C14.01 14.71 12.56 19.81 9.9 19.81ZM9.9 1.28C8.73 1.28 7.08 4.56 7.08 9.9C7.08 15.25 8.72 18.53 9.9 18.53C11.09 18.53 12.73 15.25 12.73 9.9C12.73 4.56 11.08 1.28 9.9 1.28Z" fill="#8F9B92" fill-opacity="1.000000" fill-rule="nonzero"/>
	<path id="Vector" d="M19.17 10.54L0.64 10.54C0.28 10.54 0 10.26 0 9.9C0 9.55 0.28 9.26 0.64 9.26L19.17 9.26L19.17 9.26C19.53 9.26 19.81 9.55 19.81 9.9C19.81 10.26 19.53 10.54 19.17 10.54Z" fill="#8F9B92" fill-opacity="1.000000" fill-rule="nonzero"/>
</svg>
