<svg width="15.000000" height="14.260010" viewBox="0 0 15 14.26" fill="none" xmlns="http://www.w3.org/2000/svg" xmlns:xlink="http://www.w3.org/1999/xlink">
	<desc>
			Created with Pixso.
	</desc>
	<defs/>
	<path id="Vector" d="M15 8.74L15 14.26L11.77 14.26L11.77 9.08C11.77 7.8 11.3 6.92 10.15 6.92C9.28 6.92 8.74 7.53 8.54 8.07C8.47 8.27 8.4 8.54 8.4 8.87L8.4 14.26L5.17 14.26C5.17 14.26 5.24 5.51 5.17 4.64L8.4 4.64L8.4 5.98C8.81 5.31 9.61 4.37 11.3 4.37C13.38 4.37 15 5.78 15 8.74ZM1.81 0C0.73 0 0 0.73 0 1.68C0 2.62 0.67 3.36 1.74 3.36C2.89 3.36 3.56 2.62 3.56 1.68C3.63 0.67 2.95 0 1.81 0ZM0.2 14.26L3.43 14.26L3.43 4.64L0.2 4.64L0.2 14.26Z" fill="#FFFFFF" fill-opacity="1.000000" fill-rule="nonzero"/>
</svg>
