<svg width="263.635986" height="50.140869" viewBox="0 0 263.636 50.1409" fill="none" xmlns="http://www.w3.org/2000/svg" xmlns:xlink="http://www.w3.org/1999/xlink">
	<desc>
			Created with Pixso.
	</desc>
	<defs>
		<clipPath id="clip327_2120">
			<rect id="Frame" rx="-0.254393" width="200.726273" height="21.291563" transform="translate(0.254149 7.184203)" fill="white" fill-opacity="0"/>
		</clipPath>
		<clipPath id="clip327_2118">
			<rect id="Frame" rx="-0.254393" width="200.726273" height="21.291563" transform="translate(0.254149 7.184203)" fill="white" fill-opacity="0"/>
		</clipPath>
		<clipPath id="clip327_2125">
			<rect id="Frame" rx="-0.254393" width="117.636337" height="8.825746" transform="translate(83.343994 34.131104)" fill="white" fill-opacity="0"/>
		</clipPath>
		<clipPath id="clip327_2123">
			<rect id="Frame" rx="-0.254393" width="117.636337" height="8.825746" transform="translate(83.343994 34.131104)" fill="white" fill-opacity="0"/>
		</clipPath>
		<clipPath id="clip327_2116">
			<rect id="textblock" rx="-0.254393" width="200.726273" height="35.772636" transform="translate(0.254149 7.184203)" fill="white" fill-opacity="0"/>
		</clipPath>
		<clipPath id="clip327_2114">
			<rect id="Frame" rx="-0.254393" width="200.726273" height="35.772636" transform="translate(0.254149 7.184203)" fill="white" fill-opacity="0"/>
		</clipPath>
		<clipPath id="clip327_2130">
			<rect id="icon-0" rx="-0.254393" width="49.633137" height="49.632137" transform="translate(213.748291 0.254271)" fill="white" fill-opacity="0"/>
		</clipPath>
		<clipPath id="clip327_2128">
			<rect id="Frame" rx="-0.254393" width="49.633137" height="49.632137" transform="translate(213.748291 0.254271)" fill="white" fill-opacity="0"/>
		</clipPath>
		<clipPath id="clip327_2110">
			<rect id="Frame" rx="-0.333278" width="262.969513" height="49.474358" transform="translate(0.333278 0.333278)" fill="white" fill-opacity="0"/>
		</clipPath>
	</defs>
	<rect id="Frame" rx="-0.333278" width="262.969513" height="49.474358" transform="translate(0.333278 0.333278)" fill="#FFFFFF" fill-opacity="0"/>
	<g clip-path="url(#clip327_2110)">
		<path id="yte-0" d="M207.36 3.3C207.9 3.3 208.34 4.48 208.34 5.93L208.34 44.2C208.34 45.65 207.9 46.83 207.36 46.83C206.82 46.83 206.38 45.65 206.38 44.2L206.38 5.93C206.38 4.48 206.82 3.3 207.36 3.3Z" fill="#000000" fill-opacity="1.000000" fill-rule="evenodd"/>
		<rect id="Frame" rx="-0.254393" width="200.726273" height="35.772636" transform="translate(0.254149 7.184203)" fill="#FFFFFF" fill-opacity="0"/>
		<g clip-path="url(#clip327_2114)">
			<rect id="textblock" rx="-0.254393" width="200.726273" height="35.772636" transform="translate(0.254149 7.184203)" fill="#FFFFFF" fill-opacity="0"/>
			<g clip-path="url(#clip327_2116)">
				<rect id="Frame" rx="-0.254393" width="200.726273" height="21.291563" transform="translate(0.254149 7.184203)" fill="#FFFFFF" fill-opacity="0"/>
				<g clip-path="url(#clip327_2118)">
					<rect id="Frame" rx="-0.254393" width="200.726273" height="21.291563" transform="translate(0.254149 7.184203)" fill="#FFFFFF" fill-opacity="0"/>
					<g clip-path="url(#clip327_2120)">
						<path id="text-0" d="M0 7.82C0 7.22 0.12 6.92 0.37 6.92L8.69 6.92C12.46 6.92 15.17 7.83 16.83 9.64C18.37 11.33 19.15 13.98 19.16 17.6L19.16 17.65C19.16 21.27 18.07 24.02 15.88 25.92C13.96 27.59 11.56 28.43 8.69 28.44L0.79 28.44C0.53 28.44 0.4 28.17 0.4 27.62C0.4 27.19 0.53 26.82 0.77 26.54C0.84 26.46 1 26.42 1.26 26.42C1.51 26.42 1.77 26.41 2.04 26.38C2.33 26.36 2.55 26.33 2.7 26.28C2.97 26.19 3.1 26.04 3.1 25.81L3.1 9.14C3.1 9.01 3.05 8.94 2.93 8.94L0.58 8.94C0.32 8.94 0.14 8.69 0.05 8.2C0.03 8.06 0.01 7.94 0 7.82ZM6.12 9.13L6.12 26.24L8.22 26.24C10.26 26.24 11.99 25.57 13.43 24.25C15.03 22.75 15.83 20.7 15.83 18.1C15.83 13.64 14.43 10.83 11.65 9.68C10.75 9.31 9.73 9.13 8.58 9.13L6.12 9.13ZM31.09 26.42L33.49 26.42C33.75 26.42 33.88 26.74 33.88 27.38C33.88 27.79 33.8 28.07 33.66 28.22C33.51 28.36 33.39 28.44 33.29 28.44L25.7 28.44C25.47 28.44 25.36 28.17 25.36 27.62C25.36 27.14 25.49 26.77 25.75 26.52C25.82 26.45 25.97 26.41 26.2 26.41L26.24 26.41C26.28 26.42 26.33 26.42 26.37 26.42C26.59 26.42 26.82 26.41 27.05 26.38C27.32 26.36 27.54 26.33 27.69 26.28C27.95 26.2 28.08 26.05 28.08 25.81L28.08 9.13L23.29 9.13L22.66 11.24C22.57 11.49 22.34 11.61 21.95 11.61C21.47 11.6 21.1 11.46 20.86 11.17C20.78 11.07 20.74 10.98 20.74 10.88L20.74 10.82L21.28 6.92L37.88 6.92L38.42 10.82L38.42 10.88C38.42 11.23 38.16 11.46 37.64 11.57C37.53 11.6 37.41 11.61 37.28 11.61L37.2 11.61C36.82 11.61 36.59 11.49 36.51 11.24L35.88 9.13L31.09 9.13L31.09 26.42ZM52.49 20.47C52.49 20.87 52.15 21.06 51.46 21.06C50.78 21.06 50.43 20.93 50.43 20.67L50.43 18.52L45.87 18.52L45.87 26.42L48.95 26.42C49.2 26.42 49.32 26.71 49.32 27.3C49.32 27.75 49.25 28.06 49.1 28.21C48.96 28.36 48.83 28.44 48.73 28.44L40.54 28.44C40.29 28.44 40.16 28.16 40.16 27.6C40.16 27.11 40.28 26.75 40.51 26.52C40.59 26.45 40.74 26.41 40.97 26.41L41.01 26.41C41.05 26.42 41.09 26.42 41.14 26.42C41.36 26.42 41.58 26.41 41.81 26.38C42.09 26.36 42.31 26.33 42.46 26.28C42.72 26.19 42.86 26.04 42.86 25.81L42.86 9.14C42.86 9.01 42.8 8.94 42.69 8.94L40.34 8.94C40.07 8.94 39.89 8.69 39.8 8.2C39.78 8.06 39.76 7.94 39.75 7.82C39.75 7.22 39.88 6.92 40.13 6.92L55.85 6.92L55.85 11.08C55.85 11.41 55.52 11.57 54.85 11.57C54.17 11.57 53.83 11.46 53.83 11.25C53.83 10.45 53.73 9.94 53.52 9.71C53.15 9.32 52.47 9.13 51.49 9.13L45.87 9.13L45.87 16.32L49.5 16.32C49.94 16.32 50.2 16.21 50.27 16C50.4 15.7 50.46 15.08 50.46 14.16C50.46 13.94 50.75 13.83 51.32 13.83C51.81 13.83 52.13 13.89 52.28 14.03C52.42 14.16 52.49 14.27 52.49 14.36L52.49 20.47ZM63.29 28.73C62.26 28.73 61.37 28.53 60.6 28.15C59.83 27.77 59.17 27.24 58.64 26.55C57.57 25.17 57.04 23.36 57.04 21.12C57.04 18.77 57.76 16.94 59.21 15.63C60.53 14.44 62.18 13.84 64.18 13.84L64.23 13.84C66.09 13.84 67.6 14.55 68.73 15.97C69.82 17.33 70.36 19.08 70.36 21.24C70.36 23.64 69.69 25.5 68.36 26.84C67.1 28.1 65.41 28.73 63.29 28.73ZM61.21 17.04C60.85 17.43 60.55 17.95 60.32 18.61C60.08 19.27 59.97 20.08 59.97 21.05C59.97 22.02 60.06 22.84 60.24 23.52C60.43 24.19 60.68 24.74 61.01 25.18C61.67 26.07 62.58 26.52 63.74 26.52C64.94 26.52 65.87 26 66.53 24.95C67.13 24 67.43 22.75 67.43 21.21C67.42 18.62 66.66 17 65.15 16.35C64.7 16.14 64.24 16.04 63.77 16.04C63.3 16.04 62.84 16.11 62.4 16.26C61.97 16.4 61.57 16.66 61.21 17.04ZM77.42 14.73L77.42 14.9L77.4 15.47C77.4 15.59 77.4 15.7 77.4 15.81C77.39 15.93 77.39 16.04 77.39 16.13C78.51 15.11 79.63 14.41 80.75 14.03C81.12 13.91 81.49 13.85 81.88 13.84L81.91 13.84C82.28 13.84 82.62 13.91 82.91 14.06C83.22 14.21 83.46 14.39 83.64 14.6C83.96 14.98 84.13 15.37 84.13 15.78C84.13 16.21 84.07 16.54 83.97 16.77C83.86 17.01 83.71 17.22 83.52 17.39C83.12 17.76 82.73 17.95 82.34 17.95C81.94 17.95 81.63 17.89 81.42 17.78C81.21 17.67 81.03 17.53 80.86 17.36C80.52 17 80.35 16.59 80.35 16.14C79.8 16.4 79.38 16.7 79.1 17.03C78.81 17.36 78.57 17.67 78.38 17.96L77.75 18.93L77.75 26.42L81.22 26.42C81.44 26.42 81.55 26.71 81.55 27.3C81.55 27.76 81.48 28.07 81.34 28.22C81.21 28.36 81.08 28.44 80.96 28.44L72.64 28.44C72.38 28.44 72.25 28.14 72.25 27.54C72.26 27.1 72.39 26.76 72.63 26.52C72.71 26.46 72.88 26.42 73.13 26.42C73.39 26.42 73.65 26.41 73.93 26.39C74.2 26.37 74.41 26.33 74.56 26.28C74.83 26.19 74.96 26.04 74.96 25.81L74.96 16.39L72.44 16.39C72.07 16.39 71.89 16.01 71.89 15.27C71.89 14.79 72.01 14.5 72.25 14.4C72.5 14.3 72.81 14.21 73.21 14.14C73.6 14.07 74.01 14.01 74.43 13.97C75.24 13.89 75.87 13.85 76.33 13.84L76.45 13.84C76.84 13.84 77.07 13.87 77.15 13.92C77.24 13.95 77.31 14.02 77.35 14.12C77.4 14.21 77.42 14.41 77.42 14.73ZM108.95 26.42L111.17 26.42C111.43 26.42 111.56 26.76 111.56 27.43C111.56 28.1 111.38 28.44 111.03 28.44L104.47 28.44C104.22 28.44 104.09 28.15 104.09 27.57C104.09 27.1 104.21 26.75 104.44 26.52C104.51 26.46 104.58 26.42 104.66 26.42L104.68 26.42C105.67 26.42 106.17 26.22 106.17 25.81L106.17 21.56C106.17 19.71 106.06 18.5 105.86 17.92C105.65 17.35 105.38 16.94 105.05 16.69C104.72 16.45 104.27 16.33 103.71 16.33C102.65 16.33 101.34 16.94 99.79 18.17L99.79 26.42L102.01 26.42C102.27 26.42 102.4 26.76 102.4 27.43C102.4 28.1 102.2 28.44 101.81 28.44L95.3 28.44C95.05 28.44 94.93 28.16 94.93 27.6L94.93 27.54C94.93 27.1 95.05 26.76 95.29 26.52C95.35 26.46 95.42 26.42 95.49 26.42L95.52 26.42C96.51 26.42 97 26.22 97 25.81L97 21.56C97 19.71 96.9 18.5 96.69 17.92C96.48 17.35 96.21 16.94 95.88 16.69C95.55 16.45 95.11 16.33 94.54 16.33C93.49 16.33 92.18 16.94 90.63 18.17L90.63 26.42L93.03 26.42C93.28 26.42 93.4 26.71 93.4 27.27C93.4 27.73 93.33 28.04 93.18 28.2C93.03 28.36 92.91 28.44 92.82 28.44L85.55 28.44C85.29 28.44 85.15 28.17 85.15 27.62C85.15 27.13 85.22 26.8 85.37 26.65C85.51 26.5 85.64 26.42 85.74 26.42L85.88 26.42C86.98 26.42 87.6 26.31 87.76 26.1C87.81 26.02 87.84 25.92 87.84 25.81L87.84 16.33L85.33 16.33C85.05 16.32 84.86 16.08 84.77 15.6C84.75 15.47 84.74 15.34 84.74 15.23C84.74 14.78 84.87 14.51 85.12 14.41C85.37 14.31 85.69 14.22 86.08 14.14C86.47 14.07 86.88 14.01 87.31 13.97C88.17 13.88 88.81 13.83 89.24 13.83L89.3 13.83C89.72 13.84 89.97 13.88 90.06 13.97C90.15 14.07 90.22 14.19 90.26 14.34C90.3 14.5 90.33 14.84 90.33 15.36L90.33 15.63C91.77 14.83 93.08 14.28 94.26 13.99C94.64 13.89 94.96 13.84 95.22 13.84C96.98 13.84 98.25 14.51 99.02 15.86C100.5 15 101.93 14.39 103.32 14.02C103.74 13.9 104.25 13.84 104.86 13.84C105.45 13.84 106.05 13.97 106.64 14.22C107.23 14.47 107.7 14.84 108.04 15.32C108.65 16.16 108.95 17.49 108.95 19.32L108.95 26.42ZM118.72 15.86L117.26 15.86C117.38 16.11 117.43 16.39 117.43 16.7C117.43 17.02 117.38 17.29 117.29 17.53C117.17 17.77 117.03 17.97 116.86 18.14C116.5 18.51 116.03 18.69 115.47 18.7C114.59 18.7 113.98 18.31 113.66 17.53C113.56 17.29 113.52 17 113.52 16.65C113.52 16.3 113.62 15.98 113.81 15.67C114.01 15.37 114.28 15.11 114.61 14.89C114.94 14.67 115.31 14.49 115.72 14.36C116.14 14.22 116.56 14.12 116.99 14.05C117.74 13.91 118.57 13.84 119.46 13.84C120.35 13.84 121.12 13.98 121.77 14.27C122.42 14.56 122.94 14.94 123.32 15.43C123.98 16.28 124.31 17.48 124.31 19.03L124.31 26.42L126.71 26.42C126.97 26.42 127.09 26.71 127.09 27.27C127.09 27.51 127.05 27.76 126.95 28C126.86 28.25 126.71 28.39 126.51 28.44C125.97 28.59 125.21 28.67 124.23 28.67C123.22 28.67 122.66 28.65 122.55 28.62C122.44 28.58 122.33 28.52 122.23 28.44C122.06 28.27 121.87 27.95 121.69 27.45C120.53 28.3 119.13 28.73 117.49 28.73C116.02 28.73 114.87 28.33 114.03 27.55C113.24 26.83 112.84 25.88 112.84 24.71L112.84 24.66C112.84 23.21 113.38 22.07 114.46 21.25C115.4 20.52 116.58 20.16 117.99 20.16L121.52 20.16C121.52 18.57 121.39 17.54 121.13 17.08C120.87 16.62 120.55 16.3 120.19 16.12C119.82 15.95 119.33 15.86 118.72 15.86ZM118.01 26.52C119.21 26.52 120.38 26.05 121.52 25.09L121.52 22.31L118.4 22.31C117.64 22.31 117.08 22.44 116.72 22.69C116.06 23.15 115.73 23.68 115.73 24.28C115.73 25.41 116.2 26.11 117.13 26.39C117.41 26.48 117.7 26.52 118.01 26.52ZM132.83 28.73C130.88 28.73 129.9 27.41 129.9 24.77L129.9 16.33L127.18 16.33C127.18 15.28 127.25 14.65 127.38 14.44C127.5 14.23 127.65 14.13 127.8 14.13L127.94 14.13C129.11 14.13 129.81 14.02 130.05 13.8C130.15 13.72 130.2 13.63 130.21 13.51L130.82 10.36C130.94 9.83 131.56 9.57 132.69 9.57L132.69 14.13L136.55 14.13C136.78 14.13 136.9 14.41 136.9 14.97C136.89 15.52 136.77 15.93 136.55 16.2C136.48 16.29 136.39 16.33 136.29 16.33L132.69 16.33L132.69 24.77C132.69 25.83 133 26.37 133.63 26.37C134.34 26.37 134.85 26.31 135.15 26.2C135.45 26.09 135.66 26.04 135.77 26.04C135.88 26.04 135.99 26.07 136.09 26.14C136.2 26.21 136.3 26.31 136.37 26.42C136.53 26.67 136.62 26.93 136.62 27.2C136.62 27.48 136.53 27.67 136.35 27.75C135.12 28.4 133.94 28.73 132.83 28.73ZM138.76 26.79C138.76 25.89 139.16 25.27 139.96 24.95C140.21 24.85 140.47 24.81 140.74 24.81C141.02 24.81 141.28 24.85 141.52 24.95C141.75 25.07 141.96 25.21 142.13 25.38C142.5 25.76 142.69 26.23 142.69 26.79C142.69 27.67 142.3 28.27 141.52 28.58C141.28 28.68 141.02 28.73 140.74 28.73C140.46 28.73 140.2 28.68 139.95 28.58C139.71 28.49 139.5 28.35 139.33 28.18C138.95 27.82 138.76 27.36 138.76 26.79ZM153.57 15.86L152.24 15.86C151.25 15.86 150.39 16.24 149.68 16.98C148.77 17.95 148.31 19.34 148.31 21.15C148.31 23.8 149.05 25.48 150.52 26.18C150.99 26.41 151.47 26.52 151.95 26.52C152.44 26.52 152.88 26.47 153.27 26.37C153.66 26.26 154.04 26.12 154.41 25.95C154.79 25.79 155.16 25.6 155.5 25.39L156.51 24.78C156.55 24.75 156.62 24.74 156.71 24.74C156.8 24.74 156.91 24.79 157.04 24.9C157.17 25.01 157.3 25.14 157.41 25.29C157.66 25.66 157.78 25.96 157.78 26.2C157.78 26.43 157.73 26.6 157.63 26.68C155.81 28.04 153.83 28.73 151.68 28.73C149.69 28.73 148.13 28.03 147 26.65C145.92 25.32 145.38 23.48 145.38 21.15C145.38 18.86 146.07 17.05 147.45 15.71C148.74 14.48 150.4 13.85 152.41 13.84C154.56 13.85 156.05 14.32 156.88 15.26C157.2 15.62 157.36 16.01 157.36 16.42C157.36 16.83 157.31 17.15 157.22 17.39C157.1 17.63 156.95 17.83 156.78 18C156.4 18.37 155.94 18.56 155.4 18.56C154.85 18.56 154.39 18.37 154.01 18C153.63 17.64 153.44 17.28 153.44 16.91C153.44 16.55 153.48 16.2 153.57 15.86ZM165.83 28.73C164.81 28.73 163.91 28.53 163.14 28.15C162.37 27.77 161.72 27.24 161.19 26.55C160.12 25.17 159.59 23.36 159.59 21.12C159.59 18.77 160.31 16.94 161.76 15.63C163.08 14.44 164.73 13.84 166.73 13.84L166.78 13.84C168.64 13.84 170.14 14.55 171.28 15.97C172.37 17.33 172.91 19.08 172.91 21.24C172.91 23.64 172.24 25.5 170.91 26.84C169.65 28.1 167.96 28.73 165.83 28.73ZM163.76 17.04C163.4 17.43 163.1 17.95 162.87 18.61C162.63 19.27 162.52 20.08 162.52 21.05C162.52 22.02 162.6 22.84 162.78 23.52C162.98 24.19 163.23 24.74 163.56 25.18C164.22 26.07 165.13 26.52 166.29 26.52C167.49 26.52 168.42 26 169.08 24.95C169.68 24 169.98 22.75 169.98 21.21C169.97 18.62 169.21 17 167.7 16.35C167.25 16.14 166.78 16.04 166.32 16.04C165.84 16.04 165.38 16.11 164.95 16.26C164.52 16.4 164.12 16.66 163.76 17.04ZM198.63 26.42L200.84 26.42C201.1 26.42 201.23 26.76 201.23 27.43C201.23 28.1 201.05 28.44 200.7 28.44L194.14 28.44C193.89 28.44 193.77 28.15 193.77 27.57C193.77 27.1 193.88 26.75 194.11 26.52C194.17 26.46 194.24 26.42 194.32 26.42L194.35 26.42C195.34 26.42 195.84 26.22 195.84 25.81L195.84 21.56C195.84 19.71 195.73 18.5 195.52 17.92C195.31 17.35 195.04 16.94 194.71 16.69C194.39 16.45 193.94 16.33 193.38 16.33C192.32 16.33 191.02 16.94 189.46 18.17L189.46 26.42L191.68 26.42C191.93 26.42 192.06 26.76 192.06 27.43C192.06 28.1 191.87 28.44 191.48 28.44L184.97 28.44C184.73 28.44 184.6 28.16 184.6 27.6L184.6 27.54C184.6 27.1 184.72 26.76 184.96 26.52C185.03 26.46 185.09 26.42 185.16 26.42L185.19 26.42C186.18 26.42 186.68 26.22 186.68 25.81L186.68 21.56C186.68 19.71 186.57 18.5 186.36 17.92C186.15 17.35 185.88 16.94 185.55 16.69C185.22 16.45 184.78 16.33 184.22 16.33C183.16 16.33 181.85 16.94 180.3 18.17L180.3 26.42L182.7 26.42C182.95 26.42 183.07 26.71 183.07 27.27C183.07 27.73 183 28.04 182.85 28.2C182.7 28.36 182.58 28.44 182.48 28.44L175.22 28.44C174.96 28.44 174.82 28.17 174.82 27.62C174.82 27.13 174.89 26.8 175.03 26.65C175.18 26.5 175.3 26.42 175.41 26.42L175.55 26.42C176.65 26.42 177.27 26.31 177.42 26.1C177.48 26.02 177.51 25.92 177.51 25.81L177.51 16.33L174.99 16.33C174.72 16.32 174.53 16.08 174.44 15.6C174.42 15.47 174.41 15.34 174.41 15.23C174.41 14.78 174.53 14.51 174.79 14.41C175.04 14.31 175.36 14.22 175.75 14.14C176.14 14.07 176.55 14.01 176.98 13.97C177.84 13.88 178.48 13.83 178.91 13.83L178.97 13.83C179.39 13.84 179.64 13.88 179.72 13.97C179.82 14.07 179.89 14.19 179.92 14.34C179.97 14.5 180 14.84 180 15.36L180 15.63C181.44 14.83 182.75 14.28 183.93 13.99C184.31 13.89 184.63 13.84 184.89 13.84C186.65 13.84 187.92 14.51 188.69 15.86C190.17 15 191.6 14.39 192.99 14.02C193.41 13.9 193.92 13.84 194.52 13.84C195.12 13.84 195.72 13.97 196.31 14.22C196.9 14.47 197.37 14.84 197.71 15.32C198.32 16.16 198.63 17.49 198.63 19.32L198.63 26.42Z" fill="#000000" fill-opacity="1.000000" fill-rule="nonzero"/>
					</g>
				</g>
				<rect id="Frame" rx="-0.254393" width="117.636337" height="8.825746" transform="translate(83.343994 34.131104)" fill="#FFFFFF" fill-opacity="0"/>
				<g clip-path="url(#clip327_2123)">
					<rect id="Frame" rx="-0.254393" width="117.636337" height="8.825746" transform="translate(83.343994 34.131104)" fill="#FFFFFF" fill-opacity="0"/>
					<g clip-path="url(#clip327_2125)">
						<path id="text-1" d="M84.11 33.93L86.02 33.93C86.42 33.93 86.79 33.98 87.14 34.08C87.48 34.18 87.78 34.33 88.04 34.53C88.3 34.73 88.5 34.98 88.65 35.28C88.79 35.58 88.87 35.93 88.87 36.33L88.87 40.41C88.87 40.75 88.83 41.06 88.75 41.32C88.68 41.58 88.58 41.8 88.46 42C88.34 42.19 88.2 42.35 88.05 42.48C87.9 42.62 87.74 42.73 87.58 42.81C87.2 43.01 86.78 43.13 86.3 43.15L84.11 43.15C83.86 43.15 83.66 43.11 83.53 43.02C83.39 42.94 83.29 42.82 83.23 42.68C83.17 42.54 83.13 42.38 83.12 42.2C83.11 42.02 83.11 41.83 83.11 41.64L83.11 35.43C83.11 35.24 83.11 35.06 83.12 34.88C83.13 34.69 83.17 34.53 83.23 34.39C83.29 34.25 83.39 34.14 83.53 34.06C83.66 33.97 83.86 33.93 84.11 33.93ZM85.97 35.47L85.11 35.47L85.11 41.58L85.97 41.58C86.16 41.57 86.33 41.53 86.48 41.45C86.54 41.42 86.6 41.38 86.66 41.33C86.72 41.27 86.78 41.21 86.82 41.14C86.87 41.07 86.91 40.98 86.94 40.88C86.97 40.78 86.98 40.66 86.98 40.53L86.98 36.64C86.98 36.5 86.97 36.37 86.94 36.26C86.91 36.14 86.87 36.05 86.82 35.96C86.78 35.88 86.72 35.81 86.66 35.75C86.6 35.69 86.54 35.65 86.48 35.61C86.33 35.53 86.16 35.48 85.97 35.47ZM95.44 38.06L95.44 41.66C95.44 41.85 95.44 42.03 95.42 42.21C95.41 42.39 95.37 42.54 95.31 42.69C95.24 42.83 95.14 42.94 95.01 43.02C94.88 43.11 94.69 43.15 94.46 43.15C94.21 43.15 94.02 43.11 93.89 43.03C93.75 42.95 93.65 42.85 93.59 42.73C93.52 42.62 93.48 42.49 93.46 42.37C93.45 42.24 93.44 42.13 93.44 42.05C93.4 42.17 93.34 42.3 93.27 42.43C93.2 42.57 93.11 42.68 92.99 42.79C92.88 42.89 92.74 42.98 92.58 43.05C92.42 43.12 92.23 43.15 92.02 43.15C91.77 43.15 91.53 43.11 91.29 43.03C91.05 42.95 90.83 42.82 90.64 42.64C90.45 42.45 90.29 42.21 90.17 41.92C90.05 41.62 89.99 41.25 89.99 40.82L89.99 38.91C89.99 38.47 90.05 38.1 90.17 37.8C90.29 37.51 90.45 37.27 90.64 37.09C90.83 36.9 91.05 36.77 91.29 36.69C91.53 36.61 91.77 36.57 92.02 36.57C92.23 36.57 92.42 36.61 92.58 36.67C92.74 36.74 92.88 36.83 92.99 36.93C93.11 37.04 93.2 37.15 93.27 37.29C93.34 37.42 93.4 37.55 93.44 37.68C93.44 37.46 93.47 37.28 93.53 37.14C93.59 36.99 93.67 36.87 93.77 36.79C93.87 36.7 93.98 36.64 94.1 36.61C94.22 36.58 94.34 36.56 94.46 36.56C94.67 36.56 94.85 36.61 94.98 36.69C95.11 36.78 95.21 36.89 95.28 37.03C95.35 37.17 95.39 37.33 95.41 37.51C95.43 37.69 95.44 37.87 95.44 38.06ZM92.02 39.05L92.02 40.65C92.02 40.77 92.02 40.88 92.03 41C92.04 41.11 92.06 41.21 92.1 41.31C92.14 41.4 92.2 41.47 92.28 41.53C92.35 41.58 92.46 41.61 92.6 41.61C92.77 41.61 92.91 41.57 93.02 41.49C93.12 41.42 93.21 41.3 93.27 41.14C93.33 40.98 93.37 40.78 93.4 40.53C93.42 40.29 93.44 40 93.44 39.66C93.44 39.52 93.43 39.36 93.4 39.19C93.38 39.01 93.34 38.84 93.28 38.68C93.21 38.53 93.13 38.39 93.02 38.28C92.91 38.17 92.77 38.12 92.6 38.12C92.46 38.12 92.35 38.14 92.28 38.2C92.2 38.25 92.14 38.33 92.1 38.41C92.06 38.5 92.04 38.6 92.03 38.71C92.02 38.83 92.02 38.94 92.02 39.05ZM97.49 36.56L97.86 36.56L97.86 35.4C97.86 35.22 97.87 35.04 97.89 34.86C97.9 34.69 97.95 34.53 98.02 34.39C98.09 34.25 98.19 34.14 98.32 34.06C98.45 33.97 98.63 33.93 98.86 33.93C99.08 33.93 99.25 33.97 99.38 34.06C99.52 34.14 99.62 34.25 99.68 34.39C99.75 34.53 99.8 34.69 99.82 34.86C99.84 35.04 99.85 35.22 99.85 35.4L99.85 36.56L100.39 36.56C100.5 36.56 100.61 36.57 100.73 36.58C100.84 36.59 100.94 36.62 101.03 36.67C101.13 36.73 101.2 36.8 101.25 36.91C101.31 37.02 101.34 37.16 101.34 37.35C101.34 37.53 101.31 37.68 101.25 37.78C101.2 37.89 101.13 37.97 101.03 38.02C100.94 38.07 100.84 38.1 100.73 38.12C100.61 38.14 100.5 38.14 100.39 38.14L99.85 38.14L99.85 40.45C99.85 40.54 99.85 40.63 99.85 40.73C99.86 40.83 99.88 40.92 99.92 41C99.96 41.09 100.02 41.16 100.1 41.21C100.18 41.27 100.29 41.29 100.44 41.29C100.6 41.29 100.73 41.31 100.84 41.33C100.96 41.35 101.05 41.4 101.12 41.46C101.19 41.52 101.25 41.61 101.28 41.72C101.32 41.83 101.34 41.97 101.34 42.14C101.34 42.31 101.29 42.46 101.21 42.59C101.13 42.72 101.02 42.82 100.89 42.91C100.75 42.99 100.59 43.05 100.41 43.09C100.23 43.13 100.04 43.15 99.85 43.15C99.53 43.15 99.27 43.12 99.04 43.05C98.82 42.99 98.64 42.89 98.49 42.77C98.34 42.65 98.23 42.51 98.14 42.34C98.06 42.17 97.99 41.98 97.95 41.77C97.91 41.56 97.88 41.33 97.87 41.09C97.86 40.84 97.86 40.59 97.86 40.32L97.86 38.14L97.49 38.14C97.37 38.14 97.26 38.14 97.15 38.12C97.03 38.1 96.93 38.07 96.85 38.02C96.76 37.97 96.69 37.89 96.63 37.78C96.58 37.68 96.55 37.53 96.55 37.35C96.55 37.16 96.58 37.02 96.63 36.91C96.69 36.8 96.76 36.73 96.85 36.67C96.93 36.62 97.03 36.59 97.15 36.58C97.26 36.57 97.37 36.56 97.49 36.56ZM108.06 38.99L108.06 39.39C108.06 39.46 108.05 39.55 108.04 39.64C108.04 39.74 108 39.83 107.94 39.91C107.88 40 107.79 40.07 107.66 40.13C107.53 40.2 107.35 40.23 107.12 40.23L104.5 40.23L104.5 40.86C104.5 40.96 104.51 41.07 104.54 41.19C104.56 41.3 104.61 41.41 104.67 41.51C104.74 41.6 104.82 41.68 104.93 41.74C105.03 41.8 105.16 41.83 105.32 41.83C105.49 41.83 105.63 41.81 105.72 41.77C105.82 41.73 105.89 41.68 105.94 41.62C106 41.55 106.05 41.49 106.09 41.42C106.14 41.35 106.19 41.28 106.27 41.22C106.34 41.16 106.44 41.11 106.57 41.07C106.7 41.02 106.88 41 107.11 41C107.22 41 107.32 41.01 107.43 41.03C107.53 41.05 107.62 41.08 107.7 41.13C107.78 41.18 107.84 41.24 107.89 41.33C107.94 41.42 107.96 41.53 107.96 41.66C107.96 41.95 107.87 42.19 107.69 42.38C107.51 42.57 107.29 42.72 107.02 42.84C106.74 42.95 106.45 43.03 106.13 43.08C105.81 43.13 105.51 43.15 105.24 43.15C104.87 43.15 104.52 43.1 104.19 43.01C103.87 42.93 103.57 42.79 103.32 42.59C103.07 42.4 102.87 42.15 102.72 41.83C102.57 41.52 102.49 41.14 102.49 40.69L102.49 39.15C102.49 38.73 102.54 38.38 102.64 38.09C102.74 37.79 102.87 37.55 103.03 37.36C103.19 37.17 103.37 37.02 103.56 36.91C103.76 36.8 103.96 36.72 104.16 36.67C104.36 36.61 104.56 36.58 104.74 36.57C104.92 36.56 105.08 36.55 105.21 36.55C105.65 36.55 106.03 36.59 106.35 36.67C106.66 36.75 106.92 36.85 107.13 36.98C107.35 37.1 107.51 37.25 107.63 37.42C107.76 37.59 107.85 37.76 107.91 37.94C107.97 38.12 108.01 38.3 108.03 38.48C108.05 38.66 108.06 38.83 108.06 38.99ZM104.5 38.78L104.5 39.24L106.15 39.24C106.15 39.03 106.14 38.85 106.13 38.69C106.12 38.53 106.08 38.39 106.03 38.28C105.97 38.17 105.89 38.09 105.77 38.03C105.66 37.97 105.49 37.95 105.27 37.95C105.09 37.95 104.95 37.97 104.85 38.03C104.75 38.09 104.67 38.16 104.62 38.24C104.56 38.33 104.53 38.42 104.52 38.52C104.5 38.62 104.5 38.7 104.5 38.78ZM115.33 36.06C115.33 35.74 115.38 35.45 115.47 35.18C115.57 34.91 115.71 34.67 115.9 34.48C116.09 34.29 116.32 34.14 116.61 34.03C116.9 33.93 117.23 33.87 117.61 33.87C117.93 33.87 118.24 33.93 118.52 34.03C118.81 34.14 119.06 34.3 119.28 34.5C119.49 34.7 119.66 34.95 119.78 35.23C119.91 35.52 119.97 35.84 119.97 36.19C119.97 36.57 119.86 36.96 119.64 37.35C119.43 37.73 119.06 38.1 118.56 38.45L119.44 39.48L119.79 39.07C119.93 38.89 120.08 38.73 120.24 38.6C120.4 38.47 120.58 38.41 120.76 38.41C120.93 38.41 121.11 38.48 121.3 38.63C121.42 38.74 121.5 38.84 121.55 38.94C121.61 39.04 121.63 39.15 121.63 39.25C121.63 39.42 121.58 39.58 121.49 39.74C121.39 39.9 121.28 40.05 121.14 40.21L120.6 40.87L121.06 41.41C121.2 41.57 121.31 41.73 121.41 41.89C121.5 42.06 121.55 42.22 121.55 42.37C121.55 42.47 121.53 42.56 121.47 42.66C121.42 42.76 121.34 42.85 121.24 42.94C121.15 43.02 121.06 43.07 120.97 43.11C120.87 43.15 120.78 43.17 120.7 43.17C120.52 43.17 120.35 43.09 120.17 42.93C119.99 42.77 119.76 42.52 119.5 42.18C119.4 42.3 119.28 42.43 119.14 42.54C119.01 42.66 118.85 42.77 118.67 42.86C118.49 42.95 118.29 43.02 118.07 43.07C117.85 43.13 117.62 43.15 117.36 43.15C116.92 43.15 116.52 43.08 116.17 42.94C115.83 42.8 115.53 42.61 115.29 42.37C115.06 42.13 114.87 41.84 114.74 41.52C114.62 41.19 114.55 40.85 114.55 40.48C114.55 40.23 114.6 39.98 114.69 39.74C114.78 39.5 114.9 39.27 115.05 39.05C115.2 38.84 115.38 38.64 115.58 38.47C115.78 38.29 115.99 38.14 116.22 38.03C116.11 37.87 116 37.72 115.9 37.58C115.79 37.45 115.7 37.31 115.61 37.16C115.53 37.01 115.46 36.85 115.41 36.67C115.36 36.5 115.33 36.29 115.33 36.06ZM118.37 40.77L117.16 39.22C117.07 39.29 116.99 39.38 116.91 39.47C116.82 39.56 116.75 39.66 116.68 39.77C116.62 39.88 116.56 40 116.52 40.12C116.48 40.23 116.46 40.35 116.46 40.48C116.46 40.67 116.49 40.83 116.55 40.95C116.61 41.07 116.68 41.17 116.76 41.24C116.85 41.32 116.94 41.37 117.04 41.39C117.13 41.42 117.22 41.44 117.3 41.44C117.42 41.44 117.53 41.42 117.62 41.39C117.71 41.37 117.8 41.32 117.88 41.27C117.95 41.21 118.03 41.14 118.11 41.06C118.19 40.97 118.28 40.88 118.37 40.77ZM117.61 35.35C117.51 35.35 117.43 35.37 117.36 35.42C117.29 35.47 117.22 35.52 117.17 35.6C117.12 35.67 117.08 35.75 117.06 35.84C117.03 35.94 117.02 36.03 117.02 36.13C117.02 36.15 117.02 36.19 117.03 36.25C117.04 36.3 117.06 36.38 117.1 36.48C117.14 36.57 117.21 36.69 117.3 36.83C117.38 36.97 117.51 37.14 117.68 37.34C117.8 37.27 117.9 37.19 117.99 37.09C118.08 37 118.16 36.9 118.22 36.79C118.28 36.69 118.33 36.58 118.36 36.47C118.39 36.35 118.4 36.25 118.4 36.14C118.4 36.03 118.39 35.93 118.35 35.83C118.32 35.74 118.27 35.66 118.2 35.58C118.14 35.51 118.06 35.45 117.96 35.41C117.86 35.37 117.74 35.35 117.61 35.35ZM129.23 33.93L132.58 33.93C132.76 33.93 132.94 33.93 133.11 33.94C133.29 33.96 133.45 34 133.6 34.06C133.74 34.12 133.86 34.21 133.95 34.34C134.04 34.46 134.09 34.64 134.09 34.86C134.09 35.08 134.04 35.25 133.95 35.38C133.86 35.5 133.74 35.6 133.6 35.66C133.45 35.72 133.29 35.76 133.11 35.77C132.94 35.79 132.76 35.8 132.58 35.8L131.91 35.8L131.91 41.65C131.91 41.84 131.9 42.02 131.89 42.2C131.88 42.38 131.85 42.54 131.78 42.69C131.72 42.83 131.63 42.94 131.49 43.02C131.35 43.11 131.16 43.15 130.91 43.15C130.66 43.15 130.47 43.11 130.33 43.02C130.19 42.94 130.09 42.83 130.03 42.69C129.97 42.54 129.93 42.38 129.92 42.2C129.91 42.02 129.91 41.84 129.91 41.65L129.91 35.8L129.23 35.8C129.06 35.8 128.88 35.79 128.71 35.77C128.53 35.76 128.37 35.72 128.22 35.66C128.08 35.6 127.96 35.5 127.87 35.38C127.78 35.25 127.73 35.08 127.73 34.86C127.73 34.64 127.78 34.46 127.87 34.34C127.96 34.21 128.08 34.12 128.22 34.06C128.37 34 128.53 33.96 128.71 33.94C128.88 33.93 129.06 33.93 129.23 33.93ZM135.15 41.68L135.15 38.04C135.15 37.85 135.16 37.67 135.18 37.5C135.2 37.32 135.25 37.17 135.32 37.03C135.39 36.89 135.49 36.78 135.62 36.69C135.75 36.61 135.93 36.56 136.15 36.56C136.38 36.56 136.56 36.61 136.69 36.69C136.82 36.78 136.92 36.89 136.99 37.03C137.06 37.17 137.11 37.32 137.13 37.5C137.15 37.67 137.16 37.85 137.16 38.04L137.16 41.68C137.16 41.86 137.15 42.04 137.13 42.22C137.11 42.4 137.06 42.55 136.99 42.69C136.92 42.83 136.82 42.94 136.69 43.03C136.56 43.11 136.38 43.15 136.15 43.15C135.93 43.15 135.75 43.11 135.62 43.03C135.49 42.94 135.39 42.83 135.32 42.69C135.25 42.55 135.2 42.4 135.18 42.22C135.16 42.04 135.15 41.86 135.15 41.68ZM137.17 34.93C137.17 35.27 137.08 35.52 136.91 35.68C136.73 35.85 136.48 35.93 136.17 35.93C135.85 35.93 135.61 35.85 135.43 35.68C135.25 35.52 135.16 35.27 135.16 34.93C135.16 34.58 135.25 34.32 135.43 34.16C135.61 34 135.85 33.93 136.17 33.93C136.5 33.93 136.76 34 136.92 34.16C137.09 34.32 137.17 34.58 137.17 34.93ZM143.59 43.15C143.36 43.15 143.19 43.11 143.05 43.02C142.92 42.94 142.82 42.83 142.75 42.69C142.68 42.54 142.64 42.39 142.62 42.21C142.6 42.03 142.59 41.85 142.59 41.66L142.59 39.05C142.59 38.93 142.58 38.82 142.57 38.7C142.56 38.59 142.53 38.49 142.49 38.4C142.45 38.31 142.39 38.24 142.32 38.19C142.24 38.13 142.14 38.1 142 38.1C141.83 38.1 141.69 38.16 141.58 38.28C141.47 38.4 141.38 38.56 141.32 38.77C141.25 38.97 141.21 39.21 141.18 39.49C141.16 39.76 141.15 40.06 141.15 40.39L141.15 41.66C141.15 41.85 141.14 42.03 141.12 42.21C141.1 42.39 141.06 42.54 140.99 42.69C140.92 42.83 140.82 42.94 140.69 43.02C140.56 43.11 140.38 43.15 140.15 43.15C139.92 43.15 139.74 43.11 139.61 43.02C139.47 42.94 139.37 42.83 139.31 42.69C139.24 42.54 139.2 42.39 139.18 42.21C139.16 42.03 139.15 41.85 139.15 41.66L139.15 38.05C139.15 37.87 139.15 37.69 139.17 37.51C139.18 37.33 139.22 37.17 139.29 37.03C139.36 36.89 139.46 36.78 139.59 36.69C139.72 36.61 139.91 36.56 140.15 36.56C140.39 36.56 140.58 36.6 140.71 36.68C140.84 36.77 140.95 36.86 141.01 36.98C141.08 37.1 141.12 37.22 141.13 37.35C141.14 37.47 141.15 37.58 141.15 37.67C141.19 37.54 141.25 37.41 141.34 37.28C141.42 37.15 141.53 37.03 141.66 36.92C141.79 36.82 141.95 36.73 142.12 36.66C142.29 36.6 142.48 36.56 142.69 36.56C142.98 36.56 143.26 36.63 143.53 36.77C143.81 36.91 144.04 37.14 144.23 37.46C144.3 37.31 144.4 37.18 144.52 37.06C144.65 36.95 144.8 36.86 144.96 36.79C145.12 36.71 145.29 36.65 145.48 36.62C145.66 36.58 145.84 36.56 146.02 36.56C146.27 36.56 146.51 36.6 146.75 36.68C146.99 36.76 147.21 36.89 147.4 37.08C147.6 37.26 147.75 37.5 147.87 37.8C147.99 38.09 148.05 38.46 148.05 38.9L148.05 41.66C148.05 41.85 148.04 42.03 148.02 42.21C148 42.39 147.95 42.54 147.88 42.69C147.81 42.83 147.71 42.94 147.58 43.02C147.44 43.11 147.26 43.15 147.04 43.15C146.81 43.15 146.63 43.11 146.5 43.02C146.36 42.94 146.26 42.83 146.19 42.69C146.12 42.54 146.07 42.39 146.05 42.21C146.03 42.03 146.02 41.85 146.02 41.66L146.02 39.05C146.02 38.93 146.02 38.82 146 38.7C145.99 38.59 145.97 38.49 145.93 38.4C145.89 38.31 145.83 38.24 145.75 38.19C145.67 38.13 145.56 38.1 145.43 38.1C145.29 38.1 145.17 38.15 145.07 38.24C144.98 38.32 144.89 38.45 144.83 38.6C144.76 38.75 144.71 38.93 144.67 39.15C144.64 39.36 144.61 39.59 144.6 39.84L144.6 41.66C144.6 41.85 144.59 42.03 144.57 42.21C144.55 42.39 144.51 42.54 144.44 42.69C144.37 42.83 144.27 42.94 144.13 43.02C144 43.11 143.82 43.15 143.59 43.15ZM155 38.99L155 39.39C155 39.46 155 39.55 154.99 39.64C154.98 39.74 154.95 39.83 154.89 39.91C154.83 40 154.73 40.07 154.61 40.13C154.48 40.2 154.3 40.23 154.07 40.23L151.44 40.23L151.44 40.86C151.44 40.96 151.46 41.07 151.48 41.19C151.51 41.3 151.55 41.41 151.62 41.51C151.68 41.6 151.77 41.68 151.87 41.74C151.98 41.8 152.11 41.83 152.26 41.83C152.43 41.83 152.57 41.81 152.67 41.77C152.76 41.73 152.83 41.68 152.89 41.62C152.94 41.55 152.99 41.49 153.04 41.42C153.08 41.35 153.14 41.28 153.21 41.22C153.28 41.16 153.39 41.11 153.52 41.07C153.64 41.02 153.82 41 154.05 41C154.16 41 154.27 41.01 154.37 41.03C154.48 41.05 154.57 41.08 154.65 41.13C154.73 41.18 154.79 41.24 154.84 41.33C154.88 41.42 154.91 41.53 154.91 41.66C154.91 41.95 154.82 42.19 154.64 42.38C154.46 42.57 154.23 42.72 153.96 42.84C153.69 42.95 153.39 43.03 153.07 43.08C152.75 43.13 152.46 43.15 152.18 43.15C151.82 43.15 151.47 43.1 151.14 43.01C150.81 42.93 150.52 42.79 150.27 42.59C150.01 42.4 149.81 42.15 149.66 41.83C149.51 41.52 149.44 41.14 149.44 40.69L149.44 39.15C149.44 38.73 149.49 38.38 149.59 38.09C149.69 37.79 149.82 37.55 149.97 37.36C150.13 37.17 150.31 37.02 150.5 36.91C150.7 36.8 150.9 36.72 151.11 36.67C151.31 36.61 151.5 36.58 151.68 36.57C151.86 36.56 152.02 36.55 152.16 36.55C152.6 36.55 152.98 36.59 153.29 36.67C153.6 36.75 153.87 36.85 154.08 36.98C154.29 37.1 154.46 37.25 154.58 37.42C154.7 37.59 154.8 37.76 154.86 37.94C154.92 38.12 154.96 38.3 154.98 38.48C154.99 38.66 155 38.83 155 38.99ZM151.44 38.78L151.44 39.24L153.09 39.24C153.09 39.03 153.08 38.85 153.07 38.69C153.06 38.53 153.03 38.39 152.98 38.28C152.92 38.17 152.83 38.09 152.72 38.03C152.6 37.97 152.44 37.95 152.22 37.95C152.04 37.95 151.9 37.97 151.8 38.03C151.69 38.09 151.61 38.16 151.56 38.24C151.51 38.33 151.48 38.42 151.46 38.52C151.45 38.62 151.44 38.7 151.44 38.78ZM162.74 33.93L165.31 33.93C165.48 33.93 165.66 33.93 165.84 33.95C166.02 33.97 166.18 34.01 166.33 34.08C166.47 34.14 166.59 34.24 166.69 34.37C166.78 34.5 166.82 34.68 166.82 34.9C166.82 35.13 166.78 35.3 166.69 35.43C166.59 35.56 166.47 35.66 166.33 35.73C166.18 35.79 166.02 35.83 165.84 35.85C165.66 35.87 165.48 35.88 165.31 35.88L163.74 35.88L163.74 37.59L164.57 37.59C164.74 37.59 164.92 37.6 165.1 37.61C165.28 37.62 165.44 37.66 165.58 37.72C165.73 37.78 165.85 37.88 165.94 38.01C166.04 38.14 166.08 38.33 166.08 38.57C166.08 38.8 166.04 38.99 165.95 39.12C165.85 39.25 165.74 39.35 165.59 39.41C165.45 39.47 165.28 39.51 165.1 39.52C164.92 39.53 164.74 39.54 164.57 39.54L163.74 39.54L163.74 41.64C163.74 41.83 163.73 42.02 163.72 42.2C163.71 42.38 163.67 42.54 163.61 42.68C163.55 42.82 163.45 42.94 163.31 43.02C163.17 43.11 162.98 43.15 162.74 43.15C162.49 43.15 162.29 43.11 162.16 43.02C162.02 42.94 161.92 42.82 161.86 42.68C161.8 42.54 161.76 42.38 161.75 42.2C161.74 42.02 161.74 41.83 161.74 41.64L161.74 35.44C161.74 35.25 161.74 35.07 161.75 34.89C161.76 34.71 161.8 34.55 161.86 34.4C161.92 34.26 162.02 34.15 162.16 34.06C162.29 33.97 162.49 33.93 162.74 33.93ZM167.51 40.67L167.51 39.04C167.51 38.64 167.56 38.29 167.67 38.01C167.78 37.73 167.92 37.49 168.1 37.31C168.27 37.12 168.46 36.97 168.68 36.87C168.89 36.76 169.1 36.68 169.31 36.63C169.51 36.58 169.71 36.54 169.88 36.53C170.06 36.52 170.2 36.51 170.3 36.51C170.4 36.51 170.54 36.52 170.72 36.53C170.89 36.54 171.08 36.58 171.28 36.63C171.48 36.68 171.68 36.76 171.89 36.87C172.09 36.97 172.28 37.12 172.44 37.31C172.6 37.49 172.74 37.73 172.85 38.01C172.95 38.29 173.01 38.64 173.01 39.04L173.01 40.67C173.01 41.08 172.95 41.42 172.85 41.7C172.74 41.98 172.6 42.22 172.44 42.41C172.28 42.6 172.09 42.74 171.89 42.85C171.68 42.95 171.48 43.03 171.28 43.09C171.08 43.14 170.89 43.17 170.72 43.18C170.54 43.2 170.4 43.21 170.3 43.21C170.2 43.21 170.06 43.2 169.88 43.18C169.71 43.17 169.51 43.14 169.31 43.09C169.1 43.03 168.89 42.95 168.68 42.85C168.46 42.74 168.27 42.6 168.1 42.41C167.92 42.22 167.78 41.98 167.67 41.7C167.56 41.42 167.51 41.08 167.51 40.67ZM169.54 38.75L169.54 41.14C169.54 41.26 169.57 41.38 169.63 41.47C169.68 41.56 169.75 41.64 169.86 41.71C169.96 41.77 170.11 41.81 170.3 41.81C170.49 41.81 170.63 41.77 170.73 41.71C170.83 41.64 170.9 41.56 170.95 41.47C171 41.38 171.03 41.26 171.04 41.14L171.04 38.75C171.03 38.62 171 38.5 170.95 38.39C170.9 38.3 170.83 38.22 170.73 38.14C170.63 38.06 170.49 38.03 170.3 38.03C170.11 38.03 169.96 38.06 169.86 38.14C169.75 38.22 169.68 38.3 169.63 38.39C169.57 38.5 169.54 38.62 169.54 38.75ZM178.59 37.55C178.59 37.89 178.51 38.14 178.34 38.3C178.17 38.46 177.93 38.54 177.62 38.54C177.57 38.54 177.51 38.54 177.43 38.55C177.35 38.56 177.26 38.57 177.17 38.6C177.08 38.63 176.98 38.67 176.89 38.73C176.79 38.78 176.71 38.86 176.63 38.95C176.55 39.05 176.48 39.17 176.44 39.31C176.39 39.45 176.36 39.63 176.36 39.83L176.36 41.72C176.36 41.9 176.35 42.07 176.33 42.24C176.31 42.41 176.27 42.57 176.2 42.7C176.13 42.83 176.03 42.94 175.9 43.03C175.77 43.11 175.59 43.15 175.36 43.15C175.14 43.15 174.97 43.11 174.84 43.03C174.71 42.94 174.62 42.83 174.55 42.7C174.48 42.57 174.44 42.41 174.42 42.24C174.4 42.07 174.39 41.9 174.39 41.72L174.39 38.03C174.39 37.84 174.4 37.66 174.42 37.49C174.44 37.31 174.48 37.16 174.55 37.02C174.62 36.89 174.71 36.78 174.84 36.7C174.97 36.62 175.14 36.57 175.36 36.57C175.59 36.57 175.76 36.62 175.88 36.72C176 36.82 176.09 36.95 176.15 37.11C176.2 37.26 176.24 37.44 176.24 37.63C176.25 37.82 176.26 38 176.26 38.18L176.36 38.18C176.43 37.94 176.51 37.71 176.61 37.51C176.71 37.31 176.82 37.14 176.94 37.01C177.07 36.87 177.2 36.76 177.34 36.69C177.48 36.61 177.62 36.57 177.76 36.57C177.93 36.57 178.07 36.59 178.18 36.63C178.29 36.67 178.37 36.73 178.43 36.81C178.5 36.89 178.54 36.99 178.56 37.11C178.58 37.23 178.59 37.38 178.59 37.55ZM184.06 43.15C183.84 43.15 183.66 43.11 183.53 43.02C183.4 42.94 183.3 42.83 183.23 42.69C183.15 42.54 183.11 42.39 183.09 42.21C183.07 42.03 183.06 41.85 183.06 41.66L183.06 39.05C183.06 38.93 183.06 38.82 183.04 38.7C183.03 38.59 183.01 38.49 182.97 38.4C182.93 38.31 182.87 38.24 182.79 38.19C182.72 38.13 182.61 38.1 182.48 38.1C182.3 38.1 182.16 38.16 182.05 38.28C181.94 38.4 181.85 38.56 181.79 38.77C181.73 38.97 181.68 39.21 181.66 39.49C181.63 39.76 181.62 40.06 181.62 40.39L181.62 41.66C181.62 41.85 181.61 42.03 181.59 42.21C181.57 42.39 181.53 42.54 181.46 42.69C181.39 42.83 181.29 42.94 181.16 43.02C181.03 43.11 180.85 43.15 180.62 43.15C180.39 43.15 180.21 43.11 180.08 43.02C179.95 42.94 179.85 42.83 179.78 42.69C179.71 42.54 179.67 42.39 179.65 42.21C179.63 42.03 179.62 41.85 179.62 41.66L179.62 38.05C179.62 37.87 179.63 37.69 179.64 37.51C179.66 37.33 179.7 37.17 179.76 37.03C179.83 36.89 179.93 36.78 180.06 36.69C180.2 36.61 180.38 36.56 180.62 36.56C180.86 36.56 181.05 36.6 181.18 36.68C181.32 36.77 181.42 36.86 181.48 36.98C181.55 37.1 181.59 37.22 181.6 37.35C181.62 37.47 181.62 37.58 181.62 37.67C181.66 37.54 181.72 37.41 181.81 37.28C181.9 37.15 182.01 37.03 182.14 36.92C182.27 36.82 182.42 36.73 182.59 36.66C182.76 36.6 182.96 36.56 183.17 36.56C183.46 36.56 183.74 36.63 184.01 36.77C184.28 36.91 184.51 37.14 184.71 37.46C184.77 37.31 184.87 37.18 185 37.06C185.12 36.95 185.27 36.86 185.43 36.79C185.6 36.71 185.77 36.65 185.95 36.62C186.14 36.58 186.32 36.56 186.5 36.56C186.74 36.56 186.98 36.6 187.23 36.68C187.47 36.76 187.68 36.89 187.88 37.08C188.07 37.26 188.23 37.5 188.35 37.8C188.47 38.09 188.53 38.46 188.53 38.9L188.53 41.66C188.53 41.85 188.52 42.03 188.5 42.21C188.48 42.39 188.43 42.54 188.36 42.69C188.29 42.83 188.18 42.94 188.05 43.02C187.92 43.11 187.74 43.15 187.51 43.15C187.29 43.15 187.11 43.11 186.97 43.02C186.84 42.94 186.73 42.83 186.66 42.69C186.59 42.54 186.55 42.39 186.53 42.21C186.51 42.03 186.5 41.85 186.5 41.66L186.5 39.05C186.5 38.93 186.49 38.82 186.48 38.7C186.47 38.59 186.44 38.49 186.4 38.4C186.36 38.31 186.3 38.24 186.22 38.19C186.15 38.13 186.04 38.1 185.91 38.1C185.77 38.1 185.65 38.15 185.55 38.24C185.45 38.32 185.37 38.45 185.3 38.6C185.23 38.75 185.18 38.93 185.15 39.15C185.11 39.36 185.09 39.59 185.08 39.84L185.08 41.66C185.08 41.85 185.07 42.03 185.05 42.21C185.03 42.39 184.98 42.54 184.91 42.69C184.84 42.83 184.74 42.94 184.6 43.02C184.47 43.11 184.29 43.15 184.06 43.15ZM195.32 38.06L195.32 41.66C195.32 41.85 195.31 42.03 195.3 42.21C195.28 42.39 195.24 42.54 195.18 42.69C195.11 42.83 195.01 42.94 194.88 43.02C194.75 43.11 194.57 43.15 194.33 43.15C194.09 43.15 193.9 43.11 193.76 43.03C193.63 42.95 193.53 42.85 193.46 42.73C193.39 42.62 193.35 42.49 193.34 42.37C193.32 42.24 193.31 42.13 193.31 42.05C193.27 42.17 193.22 42.3 193.15 42.43C193.07 42.57 192.98 42.68 192.86 42.79C192.75 42.89 192.61 42.98 192.45 43.05C192.29 43.12 192.11 43.15 191.89 43.15C191.65 43.15 191.41 43.11 191.16 43.03C190.92 42.95 190.71 42.82 190.51 42.64C190.32 42.45 190.16 42.21 190.04 41.92C189.92 41.62 189.86 41.25 189.86 40.82L189.86 38.91C189.86 38.47 189.92 38.1 190.04 37.8C190.16 37.51 190.32 37.27 190.51 37.09C190.71 36.9 190.92 36.77 191.16 36.69C191.41 36.61 191.65 36.57 191.89 36.57C192.11 36.57 192.29 36.61 192.45 36.67C192.61 36.74 192.75 36.83 192.86 36.93C192.98 37.04 193.07 37.15 193.15 37.29C193.22 37.42 193.27 37.55 193.31 37.68C193.31 37.46 193.34 37.28 193.4 37.14C193.47 36.99 193.55 36.87 193.64 36.79C193.74 36.7 193.85 36.64 193.97 36.61C194.09 36.58 194.21 36.56 194.33 36.56C194.55 36.56 194.72 36.61 194.86 36.69C194.99 36.78 195.09 36.89 195.16 37.03C195.22 37.17 195.27 37.33 195.29 37.51C195.31 37.69 195.32 37.87 195.32 38.06ZM191.89 39.05L191.89 40.65C191.89 40.77 191.89 40.88 191.9 41C191.91 41.11 191.94 41.21 191.98 41.31C192.02 41.4 192.07 41.47 192.15 41.53C192.23 41.58 192.33 41.61 192.47 41.61C192.64 41.61 192.78 41.57 192.89 41.49C193 41.42 193.08 41.3 193.14 41.14C193.2 40.98 193.25 40.78 193.27 40.53C193.29 40.29 193.31 40 193.31 39.66C193.31 39.52 193.3 39.36 193.28 39.19C193.25 39.01 193.21 38.84 193.15 38.68C193.09 38.53 193 38.39 192.89 38.28C192.78 38.17 192.64 38.12 192.47 38.12C192.33 38.12 192.23 38.14 192.15 38.2C192.07 38.25 192.02 38.33 191.98 38.41C191.94 38.5 191.91 38.6 191.9 38.71C191.89 38.83 191.89 38.94 191.89 39.05ZM197.36 36.56L197.73 36.56L197.73 35.4C197.73 35.22 197.74 35.04 197.76 34.86C197.78 34.69 197.82 34.53 197.89 34.39C197.96 34.25 198.06 34.14 198.2 34.06C198.33 33.97 198.51 33.93 198.73 33.93C198.95 33.93 199.13 33.97 199.26 34.06C199.39 34.14 199.49 34.25 199.56 34.39C199.62 34.53 199.67 34.69 199.69 34.86C199.71 35.04 199.72 35.22 199.72 35.4L199.72 36.56L200.26 36.56C200.37 36.56 200.49 36.57 200.6 36.58C200.72 36.59 200.82 36.62 200.91 36.67C201 36.73 201.07 36.8 201.12 36.91C201.18 37.02 201.21 37.16 201.21 37.35C201.21 37.53 201.18 37.68 201.12 37.78C201.07 37.89 201 37.97 200.91 38.02C200.82 38.07 200.72 38.1 200.6 38.12C200.49 38.14 200.37 38.14 200.26 38.14L199.72 38.14L199.72 40.45C199.72 40.54 199.72 40.63 199.73 40.73C199.73 40.83 199.76 40.92 199.8 41C199.84 41.09 199.9 41.16 199.97 41.21C200.05 41.27 200.17 41.29 200.31 41.29C200.47 41.29 200.61 41.31 200.72 41.33C200.83 41.35 200.92 41.4 200.99 41.46C201.07 41.52 201.12 41.61 201.15 41.72C201.19 41.83 201.21 41.97 201.21 42.14C201.21 42.31 201.17 42.46 201.09 42.59C201 42.72 200.9 42.82 200.76 42.91C200.62 42.99 200.47 43.05 200.29 43.09C200.11 43.13 199.92 43.15 199.72 43.15C199.41 43.15 199.14 43.12 198.92 43.05C198.7 42.99 198.51 42.89 198.36 42.77C198.22 42.65 198.1 42.51 198.02 42.34C197.93 42.17 197.86 41.98 197.82 41.77C197.78 41.56 197.76 41.33 197.75 41.09C197.73 40.84 197.73 40.59 197.73 40.32L197.73 38.14L197.36 38.14C197.25 38.14 197.13 38.14 197.02 38.12C196.91 38.1 196.81 38.07 196.72 38.02C196.63 37.97 196.56 37.89 196.51 37.78C196.45 37.68 196.42 37.53 196.42 37.35C196.42 37.16 196.45 37.02 196.51 36.91C196.56 36.8 196.63 36.73 196.72 36.67C196.81 36.62 196.91 36.59 197.02 36.58C197.13 36.57 197.25 36.56 197.36 36.56Z" fill="#000000" fill-opacity="1.000000" fill-rule="nonzero"/>
					</g>
				</g>
			</g>
		</g>
		<rect id="Frame" rx="-0.254393" width="49.633137" height="49.632137" transform="translate(213.748291 0.254271)" fill="#FFFFFF" fill-opacity="0"/>
		<g clip-path="url(#clip327_2128)">
			<rect id="icon-0" rx="-0.254393" width="49.633137" height="49.632137" transform="translate(213.748291 0.254271)" fill="#FFFFFF" fill-opacity="0"/>
			<g clip-path="url(#clip327_2130)">
				<path id="Vector" d="M238.56 -0.01C224.71 -0.01 213.49 11.22 213.49 25.07C213.49 38.91 224.71 50.14 238.56 50.14C252.41 50.14 263.63 38.91 263.63 25.07C263.63 11.22 252.41 -0.01 238.56 -0.01ZM239.45 45.64L239.45 42.08L236.47 42.08L236.47 45.64C227.52 44.91 218.71 36.11 217.99 27.15L221.55 27.15L221.55 24.17L217.99 24.17C218.71 14.02 227.52 5.22 236.47 4.49L236.47 9.84L239.45 9.84L239.45 4.49C249.6 5.22 258.41 14.02 259.13 24.17L253.78 24.17L253.78 27.16L259.13 27.16C258.41 36.11 249.6 44.91 239.45 45.64Z" fill="#000000" fill-opacity="1.000000" fill-rule="nonzero"/>
				<path id="Vector" d="M238.6 22.38C238.54 22.38 238.49 22.36 238.44 22.36C238.11 22.36 237.8 22.43 237.51 22.53L228.67 16.28L235.64 25.51C235.8 26.92 236.99 28.02 238.44 28.02C238.86 28.02 239.27 27.92 239.65 27.74C240.03 27.56 240.37 27.3 240.63 26.97C240.9 26.64 241.09 26.26 241.19 25.85C241.28 25.44 241.29 25.02 241.2 24.6L252.02 11.42L238.6 22.38Z" fill="#000000" fill-opacity="1.000000" fill-rule="nonzero"/>
			</g>
		</g>
	</g>
</svg>
