<svg width="21.600098" height="21.599976" viewBox="0 0 21.6001 21.6" fill="none" xmlns="http://www.w3.org/2000/svg" xmlns:xlink="http://www.w3.org/1999/xlink">
	<desc>
			Created with Pixso.
	</desc>
	<defs/>
	<path id="Vector" d="M9.8 8.83L11.76 8.83L11.76 16.69L9.8 16.69L9.8 8.83ZM10.78 4.19C10.03 4.19 9.42 4.81 9.42 5.56C9.42 6.31 10.03 6.93 10.78 6.93C11.54 6.93 12.15 6.31 12.15 5.56C12.15 4.81 11.54 4.19 10.78 4.19ZM21.6 10.8C21.6 16.75 16.75 21.6 10.8 21.6C4.84 21.6 0 16.75 0 10.8C0 4.84 4.84 0 10.8 0C16.75 0 21.6 4.84 21.6 10.8ZM19.63 10.8C19.63 5.92 15.67 1.96 10.79 1.96C5.92 1.96 1.96 5.92 1.96 10.8C1.96 15.67 5.92 19.63 10.79 19.63C15.67 19.63 19.63 15.67 19.63 10.8L19.63 10.8Z" fill="#56B46B" fill-opacity="1.000000" fill-rule="nonzero"/>
</svg>
