<svg width="14.000244" height="14.000000" viewBox="0 0 14.0002 14" fill="none" xmlns="http://www.w3.org/2000/svg" xmlns:xlink="http://www.w3.org/1999/xlink">
	<desc>
			Created with Pixso.
	</desc>
	<defs/>
	<path id="Vector" d="M7 0C3.13 0 0 3.13 0 7C0 10.86 3.13 14 7 14C10.86 14 14 10.86 14 7C14 3.13 10.86 0 7 0ZM7.25 12.74L7.25 11.75L6.41 11.75L6.41 12.74C3.91 12.54 1.45 10.08 1.25 7.58L2.25 7.58L2.25 6.75L1.25 6.75C1.45 3.91 3.91 1.45 6.41 1.25L6.41 2.75L7.25 2.75L7.25 1.25C10.08 1.45 12.54 3.91 12.74 6.75L11.25 6.75L11.25 7.58L12.74 7.58C12.54 10.08 10.08 12.54 7.25 12.74Z" fill="#56B46B" fill-opacity="1.000000" fill-rule="nonzero"/>
	<path id="Vector" d="M7.01 6.24C6.99 6.24 6.98 6.24 6.96 6.24C6.87 6.24 6.78 6.26 6.7 6.29L4.23 4.54L6.18 7.12C6.23 7.51 6.56 7.82 6.96 7.82C7.08 7.82 7.19 7.79 7.3 7.74C7.41 7.69 7.5 7.62 7.57 7.53C7.65 7.43 7.7 7.33 7.73 7.21C7.76 7.1 7.76 6.98 7.73 6.87L10.75 3.19L7.01 6.24Z" fill="#56B46B" fill-opacity="1.000000" fill-rule="nonzero"/>
</svg>
